<svg xmlns="http://www.w3.org/2000/svg" viewBox="0 0 300 200">
  <rect x="10" y="10" width="80" height="40" fill="#E1F5FE" stroke="#0288D1" rx="3"/>
  <text x="50" y="30" font-family="Arial" font-size="10" text-anchor="middle">Hospitals</text>
  
  <rect x="110" y="10" width="80" height="40" fill="#E8F5E9" stroke="#388E3C" rx="3"/>
  <text x="150" y="30" font-family="Arial" font-size="10" text-anchor="middle">AI Analysis</text>
  
  <rect x="210" y="10" width="80" height="40" fill="#F3E5F5" stroke="#7B1FA2" rx="3"/>
  <text x="250" y="30" font-family="Arial" font-size="10" text-anchor="middle">Blockchain</text>
  
  <path d="M90 30 L110 30" stroke="#333" stroke-width="1"/>
  <path d="M190 30 L210 30" stroke="#333" stroke-width="1"/>
  
  <circle cx="150" cy="100" r="30" fill="#FFF8E1" stroke="#FFA000"/>
  <text x="150" y="100" font-family="Arial" font-size="12" text-anchor="middle">Federated</text>
  <text x="150" y="115" font-family="Arial" font-size="12" text-anchor="middle">Learning</text>
  
  <rect x="60" y="150" width="60" height="30" fill="#FFEBEE" stroke="#D32F2F" rx="3"/>
  <text x="90" y="165" font-family="Arial" font-size="10" text-anchor="middle">Researchers</text>
  
  <rect x="180" y="150" width="60" height="30" fill="#E3F2FD" stroke="#1976D2" rx="3"/>
  <text x="210" y="165" font-family="Arial" font-size="10" text-anchor="middle">Clinicians</text>
  
  <path d="M150 130 L150 150" stroke="#333" stroke-width="1"/>
  <path d="M90 150 L120 150" stroke="#333" stroke-width="1" marker-end="url(#arrow)"/>
  <path d="M210 150 L180 150" stroke="#333" stroke-width="1" marker-end="url(#arrow)"/>
  
  <defs>
    <marker id="arrow" markerWidth="10" markerHeight="10" refX="9" refY="3" orient="auto" markerUnits="strokeWidth">
      <path d="M0,0 L0,6 L9,3 z" fill="#333"/>
    </marker>
  </defs>
</svg>